HIERARCHY
ROOT Hips
{
    OFFSET 0.000000 0.000000 0.000000
    CHANNELS 6 Xposition Yposition Zposition Zrotation Xrotation Yrotation
    JOINT Spine
    {
        OFFSET -0.000000 7.246840 0.000000
        CHANNELS 3 Zrotation Xrotation Yrotation
        JOINT Spine1
        {
            OFFSET -0.000000 20.289354 0.000000
            CHANNELS 3 Zrotation Xrotation Yrotation
            JOINT Neck
            {
                OFFSET -0.000000 20.206032 1.836912
                CHANNELS 3 Zrotation Xrotation Yrotation
                JOINT Head
                {
                    OFFSET -0.000000 12.372654 -1.767522
                    CHANNELS 3 Zrotation Xrotation Yrotation
                    End Site
                    {
                        OFFSET -0.000000 22.094025 0.000000
                    }
                }
            }
            JOINT LeftShoulder
            {
                OFFSET 3.465871 17.201674 -0.568930
                CHANNELS 3 Zrotation Xrotation Yrotation
                JOINT LeftArm
                {
                    OFFSET 14.070313 0.000000 0.000000
                    CHANNELS 3 Zrotation Xrotation Yrotation
                    JOINT LeftForeArm
                    {
                        OFFSET 26.549477 0.000000 0.000000
                        CHANNELS 3 Zrotation Xrotation Yrotation
                        JOINT LeftHand
                        {
                            OFFSET 18.880413 0.000000 0.000000
                            CHANNELS 3 Zrotation Xrotation Yrotation
                            End Site
                            {
                                OFFSET 13.256415 0.000000 0.000000
                            }
                        }
                    }
                }
            }
            JOINT RightShoulder
            {
                OFFSET -3.526370 17.201674 -0.568930
                CHANNELS 3 Zrotation Xrotation Yrotation
                JOINT RightArm
                {
                    OFFSET -14.070313 0.000000 0.000000
                    CHANNELS 3 Zrotation Xrotation Yrotation
                    JOINT RightForeArm
                    {
                        OFFSET -26.549477 0.000000 0.000000
                        CHANNELS 3 Zrotation Xrotation Yrotation
                        JOINT RightHand
                        {
                            OFFSET -18.880413 0.000000 0.000000
                            CHANNELS 3 Zrotation Xrotation Yrotation
                            End Site
                            {
                                OFFSET -13.256415 0.000000 0.000000
                            }
                        }
                    }
                }
            }
        }
    }
    JOINT LeftUpLeg
    {
        OFFSET 8.837609 0.000000 0.000000
        CHANNELS 3 Zrotation Xrotation Yrotation
        JOINT LeftLeg
        {
            OFFSET -0.000000 -41.345005 0.000000
            CHANNELS 3 Zrotation Xrotation Yrotation
            JOINT LeftFoot
            {
                OFFSET -0.000000 -35.500874 0.000000
                CHANNELS 3 Zrotation Xrotation Yrotation
                JOINT LeftToeBase
                {
                    OFFSET -0.000000 -5.744446 13.256415
                    CHANNELS 3 Zrotation Xrotation Yrotation
                    End Site
                    {
                        OFFSET -0.000000 0.000000 3.535044
                    }
                }
            }
        }
    }
    JOINT RightUpLeg
    {
        OFFSET -8.837609 0.000000 0.000000
        CHANNELS 3 Zrotation Xrotation Yrotation
        JOINT RightLeg
        {
            OFFSET -0.000000 -41.345005 0.000000
            CHANNELS 3 Zrotation Xrotation Yrotation
            JOINT RightFoot
            {
                OFFSET -0.000000 -35.500874 0.000000
                CHANNELS 3 Zrotation Xrotation Yrotation
                JOINT RightToeBase
                {
                    OFFSET -0.000000 -5.744446 13.256415
                    CHANNELS 3 Zrotation Xrotation Yrotation
                    End Site
                    {
                        OFFSET -0.000000 0.000000 3.535044
                    }
                }
            }
        }
    }
}
MOTION
Frames:    5
Frame Time:    0.010000
7.050809    82.493469    -69.950356    2.354425    2.021228    -2.552296    -5.006490    -12.940934    -1.252887    1.864609    3.856472    -0.747625    1.489043    32.590473    -1.616829    0.817284    -10.544401    -1.250682    19.705252    2.905493    7.337333    -29.217024    11.546109    -11.787870    2.152972    0.303250    -4.610315    1.755470    0.135831    -16.476444    -18.099720    -0.504129    10.469789    17.587700    5.028237    7.612645    -4.606479    -7.358646    1.095844    16.949104    -4.921505    16.048740    -1.976446    6.255419    0.459266    -2.586208    -8.579588    -3.601226    5.545178    -3.131551    8.948480    5.353621    4.606748    -7.294483    -5.126890    0.842882    -4.205722    3.843743    2.638978    4.791719    -2.381089    -9.403362    -13.610569    0.380661    1.175493    -0.674147    
7.049224    82.493744    -69.946548    2.353035    2.026154    -2.552646    -4.998539    -12.945704    -1.249619    1.860761    3.853052    -0.744807    1.475208    32.581039    -1.619186    0.832850    -10.531534    -1.252024    19.708961    2.896050    7.320021    -29.212336    11.579774    -11.767654    2.170627    0.275412    -4.629535    1.722291    0.114266    -16.451712    -18.100443    -0.487829    10.465124    17.570269    5.037187    7.613219    -4.611692    -7.361959    1.100371    16.969086    -4.921501    16.050232    -1.960779    6.247709    0.424319    -2.618027    -8.561684    -3.580540    5.576560    -3.233058    8.984639    5.367324    4.636744    -7.311923    -5.130662    0.842634    -4.182691    3.847285    2.632344    4.825615    -2.374027    -9.407947    -13.639229    0.396309    1.175789    -0.701857    
7.045248    82.492767    -69.942986    2.353103    2.027367    -2.548976    -4.998446    -12.945629    -1.250679    1.856180    3.851297    -0.745700    1.491342    32.577236    -1.621714    0.823404    -10.535975    -1.254288    19.700064    2.914542    7.318803    -29.194172    11.494905    -11.767585    2.179081    0.359870    -4.612417    1.670125    0.205820    -16.474365    -18.099865    -0.477514    10.457266    17.561033    5.050810    7.619831    -4.619884    -7.396881    1.102844    16.981833    -4.952510    16.063797    -1.942591    6.242705    0.367365    -2.635739    -8.553003    -3.602444    5.587923    -3.224962    9.064794    5.365465    4.611328    -7.310418    -5.125341    0.844983    -4.195926    3.850354    2.639934    4.814589    -2.390930    -9.417732    -13.647490    0.380953    1.208763    -0.674429    
7.042641    82.491982    -69.938148    2.354029    2.023712    -2.546431    -5.001498    -12.944880    -1.253208    1.857088    3.856646    -0.747988    1.469530    32.561726    -1.611057    0.860021    -10.527397    -1.238520    19.706820    2.904326    7.327013    -29.182947    11.536302    -11.782464    2.184076    0.328338    -4.629156    1.624733    0.182309    -16.417192    -18.107246    -0.483225    10.458574    17.568907    5.037408    7.606879    -4.626569    -7.430569    1.119309    16.971634    -4.986670    16.066631    -1.952557    6.252967    0.400352    -2.616534    -8.562500    -3.601714    5.570639    -3.226641    9.032109    5.372315    4.626335    -7.319132    -5.122713    0.855271    -4.195406    3.843251    2.627767    4.820128    -2.361640    -9.424976    -13.639207    0.390415    1.189819    -0.691317    
7.040480    82.490150    -69.933823    2.357365    2.025995    -2.547119    -5.001925    -12.952083    -1.251146    1.848808    3.866308    -0.745436    1.529622    32.556870    -1.629795    0.804063    -10.542404    -1.261225    19.716164    2.913095    7.332583    -29.181362    11.513055    -11.801897    2.029406    0.068019    -4.737066    2.111916    -0.158345    -16.738516    -18.100256    -0.470924    10.447057    17.559679    5.008956    7.606629    -4.637076    -7.451904    1.126459    17.011738    -4.998341    16.090284    -1.956475    6.257968    0.403750    -2.611606    -8.571535    -3.605645    5.565182    -3.227764    9.030200    5.363850    4.645994    -7.306824    -5.126646    0.856557    -4.170734    3.849093    2.629240    4.793249    -2.393091    -9.431969    -13.642046    0.385865    1.215950    -0.683073    
